# xmcd
#
# Track frame offsets:
#	150
#	17019
#	36606
#	52323
#	68605
#	82860
#	103430
#	117051
#	136812
#	157321
#	183110
#	200453
#	214761
#	230480
#	242394
#	264351
#	282235
#	299108
#	314942
#
# Disc length: 4444 seconds
#
# Revision: 0
# Processed by: cddbd v1.5.2PL0 Copyright (c) Steve Scherf et al.
# Submitted via: EasyCDDAExtractor 15.2.5.1
#
DISCID=25115a13
DTITLE=WITCH - WE INTEND TO CAUSE HAVOC! 1/4
DYEAR=1900
DGENRE=
TTITLE0=INTRODUCTION
TTITLE1=HOME TOWN
TTITLE2=YOU BETTER KNOW
TTITLE3=FEELING HIGH
TTITLE4=LIKE A CHICKEN
TTITLE5=SEE YOU MAMA
TTITLE6=THAT'S WHAT I WANT
TTITLE7=TRY ME
TTITLE8=NO TIME
TTITLE9=LIVING IN THE PAST
TTITLE10=YOUNG LADY
TTITLE11=CHANCE
TTITLE12=IT'S ALRIGHT
TTITLE13=I'VE BEEN AWAY
TTITLE14=I LIKE THE WAY I AM
TTITLE15=THE ONLY WAY
TTITLE16=SMILING FACE
TTITLE17=SHE IS MINE
TTITLE18=MASHED POTATO
EXTD=
EXTT0=
EXTT1=
EXTT2=
EXTT3=
EXTT4=
EXTT5=
EXTT6=
EXTT7=
EXTT8=
EXTT9=
EXTT10=
EXTT11=
EXTT12=
EXTT13=
EXTT14=
EXTT15=
EXTT16=
EXTT17=
EXTT18=
PLAYORDER=
